<?xml version="1.0" encoding="utf-8"?>
<!-- Generator: Adobe Illustrator 24.3.0, SVG Export Plug-In . SVG Version: 6.00 Build 0)  -->
<svg version="1.1" id="Layer_1" xmlns="http://www.w3.org/2000/svg" xmlns:xlink="http://www.w3.org/1999/xlink" x="0px" y="0px"
	 viewBox="0 0 119 129.9" style="enable-background:new 0 0 119 129.9;" xml:space="preserve">
<style type="text/css">
	.st0{fill:#3D9A39;}
	.st1{fill:#F59A9A;}
	.st2{fill:#235C20;}
	.st3{fill:#FFFFFF;}
</style>
<g>
	<path id="Head-2" class="st0" d="M8.2,90.2C4.6,76.9,6.3,62.6,13,50.5C0.6,41.3-2,23.8,7.2,11.4s26.8-15,39.2-5.8
		c5.1,3.8,8.7,9.1,10.4,15.2c0.2,0.7,0.3,1.4,0.5,2.1c1.7-0.1,3.5-0.1,5.2,0C65.5,7.7,80.3-2,95.4,1.1s24.9,17.9,21.8,33
		c-1.4,6.6-5.1,12.5-10.4,16.6c14.1,25.9,4.6,58.4-21.4,72.6C59.5,137.5,27,127.9,12.9,102C10.8,98.2,9.3,94.3,8.2,90.2L8.2,90.2z"
		/>
	<circle id="Right_Cheek-2" class="st1" cx="96.1" cy="71.6" r="8"/>
	<circle id="Left_Cheek-2" class="st1" cx="23.1" cy="71.6" r="8"/>
	<path id="Subtraction_12-2" class="st2" d="M29.7,82.1l61,1.1c0,0.2,0,0.3,0,0.5c-0.3,16.8-14.2,30.3-31,30s-30.3-14.2-30-31
		C29.7,82.4,29.7,82.3,29.7,82.1z"/>
	<path id="Intersection_2-2" class="st1" d="M59.6,113.6c-4-0.1-7.9-0.9-11.6-2.5c0.2-0.8,0.5-1.6,0.8-2.4c0.7-1.4,1.6-2.6,2.7-3.7
		c1.1-1,2.5-1.9,3.9-2.4c4.6-1.7,9.7-0.5,13.1,3c1.1,1.1,1.9,2.4,2.4,3.8c0.2,0.6,0.4,1.3,0.6,1.9C67.7,113,63.7,113.7,59.6,113.6
		L59.6,113.6z"/>
	<circle id="Right_Eyeball-2" class="st3" cx="89.9" cy="28.4" r="24"/>
	<path id="Right_Pupil-2" d="M93,40c-6.4,1.7-13-2.1-14.7-8.5c-0.5-1.7-0.5-3.5-0.2-5.3c2.9,2.6,7.3,2.3,9.9-0.6
		c2.3-2.6,2.4-6.5,0.2-9.1c6.6-1,12.7,3.5,13.7,10.1C102.7,32.6,99,38.4,93,40z"/>
	<circle id="Left_Eyeball-2" class="st3" cx="29.8" cy="28" r="24"/>
	<path id="Subtraction_4-2" d="M32.9,39.6c-6.4,1.7-13-2.1-14.7-8.5c-0.5-1.7-0.5-3.5-0.2-5.3c2.9,2.6,7.3,2.3,9.9-0.6
		c2.3-2.6,2.4-6.5,0.2-9.1c6.6-1,12.7,3.5,13.7,10.1C42.6,32.2,38.8,38,32.9,39.6z"/>
</g>
</svg>
