<?xml version="1.0" encoding="utf-8"?>
<!-- Generator: Adobe Illustrator 24.3.0, SVG Export Plug-In . SVG Version: 6.00 Build 0)  -->
<svg version="1.1" id="Layer_1" xmlns="http://www.w3.org/2000/svg" xmlns:xlink="http://www.w3.org/1999/xlink" x="0px" y="0px"
	 viewBox="0 0 119 129.9" style="enable-background:new 0 0 119 129.9;" xml:space="preserve">
<style type="text/css">
	.st0{fill:#3D9A39;}
	.st1{fill:#64AE61;}
	.st2{fill:#FFFFFF;}
	.st3{fill:#235C20;}
</style>
<g>
	<path id="Head" class="st0" d="M7.9,90.2C4.3,76.9,6,62.7,12.7,50.6c-12.4-9.2-15-26.8-5.8-39.2s26.8-15,39.2-5.8
		c5.1,3.8,8.7,9.1,10.4,15.2c0.2,0.7,0.3,1.4,0.5,2.1c1.7-0.1,3.5-0.1,5.2,0C65.2,7.8,80-2,95.2,1.1s24.9,17.9,21.8,33
		c-1.4,6.6-5.1,12.5-10.4,16.6c14.1,25.9,4.6,58.4-21.4,72.6C59.2,137.5,26.7,128,12.6,102C10.6,98.3,9,94.3,7.9,90.2L7.9,90.2z"/>
	<circle id="Right_Cheek" class="st1" cx="95.8" cy="71.7" r="8"/>
	<circle id="Left_Cheek" class="st1" cx="22.8" cy="71.7" r="8"/>
	<circle id="Left_Eyeball" class="st2" cx="29.5" cy="28" r="24"/>
	<path class="st2" d="M65.7,28.4c0,2.1,0.3,4.1,0.8,6.2c3.4,12.8,16.6,20.4,29.4,17c10.7-2.9,17.8-12.6,17.8-23.2H65.7z"/>
	<path id="Right_Pupil" d="M92.8,40c-6.4,1.7-13-2.1-14.7-8.5c-0.5-1.7-0.5-3.5-0.2-5.3c2.9,2.6,7.3,2.3,9.9-0.6
		c2.3-2.6,2.4-6.5,0.2-9.1c6.6-1,12.7,3.5,13.7,10.1C102.5,32.7,98.7,38.5,92.8,40z"/>
	<path class="st3" d="M112.8,22.2c-3.4-12.8-16.6-20.4-29.4-17C72.7,8.1,65.7,17.8,65.7,28.4h48C113.7,26.4,113.4,24.3,112.8,22.2z"
		/>
	<g>
		<path id="Right_Pupil_1_" d="M32.6,39.6c-6.4,1.7-13-2.1-14.7-8.5c-0.5-1.7-0.5-3.5-0.2-5.3c2.9,2.6,7.3,2.3,9.9-0.6
			c2.3-2.6,2.4-6.5,0.2-9.1c6.6-1,12.7,3.5,13.7,10.1C42.3,32.3,38.5,38,32.6,39.6z"/>
		<path class="st3" d="M52.7,21.8C49.2,9,36.1,1.4,23.3,4.8C12.5,7.7,5.5,17.4,5.5,28h48C53.5,26,53.2,23.9,52.7,21.8z"/>
	</g>
	<g>
		<path class="st3" d="M43.3,96.5c2.9-1.8,5.7-2.7,8.6-3.3c2.9-0.6,5.7-0.9,8.6-0.9c2.9,0,5.7,0.3,8.6,0.9c2.9,0.7,5.7,1.6,8.6,3.3
			V97l-4.3,0.1l-4.3,0l-8.6,0.1l-8.6-0.1l-4.3,0L43.3,97V96.5z"/>
	</g>
</g>
</svg>
